<svg xmlns="http://www.w3.org/2000/svg" xmlns:xlink="http://www.w3.org/1999/xlink" width="1204.588" height="634.358" viewBox="0 0 1204.588 634.358"><defs><linearGradient id="a" x1="-11.741" y1="5.084" x2="-11.741" y2="4.933" gradientUnits="objectBoundingBox"><stop offset="0" stop-color="gray" stop-opacity="0.251"/><stop offset="0.535" stop-color="gray" stop-opacity="0.122"/><stop offset="1" stop-color="gray" stop-opacity="0.102"/></linearGradient></defs><g transform="translate(399.975 25.892)"><path d="M970.42,735.63c.226,23.706-149.154,25.878-152,0C818.194,711.928,967.574,709.755,970.42,735.63Z" transform="translate(-229.58 -145.767)" fill="#e6e6e6"/><path d="M623.966,507.569l-11.1,6.055,7.065,23.213,11.1,1.009,6.056-13.12Z" fill="#9f616a"/><path d="M658.28,553.994v11.1l17.157-1.009-.239-9.143Z" fill="#9f616a"/><path d="M619.929,374.348l6.055,75.694L645.16,561.058l30.277-4.037-10.092-87.8,4.037-80.739Z" fill="#2f2e41"/><path d="M930.248,463.6l-72.666,1.009-8.074,55.508,49.453,23.213,12.111,44.407-61.563,65.6,24.222,30.277s34.314-46.425,59.545-72.666S946.4,504.977,946.4,504.977Z" transform="translate(-229.58 -145.767)" fill="#2f2e41"/><circle cx="22.203" cy="22.203" r="22.203" transform="translate(635.068 130.112)" fill="#9f616a"/><path d="M878.777,313.221v22.2l15.139,24.222s23.213-17.157,18.166-21.194-6.055-35.324-6.055-35.324Z" transform="translate(-229.58 -145.767)" fill="#9f616a"/><path d="M649.2,185.62l-15.139,18.166,6.056,126.155,47.434-1.009,8.074-110.007L685.53,190.666l-6.923-9.419-12.253,18.5Z" fill="#6c63ff"/><path d="M854.555,396.988l-11.1,42.388,11.1,42.388-18.166,24.222-16.148-76.7s12.111-62.573,13.12-69.638,3.028-8.074,3.028-8.074l8.074,1.009Z" transform="translate(-229.58 -145.767)" fill="#2f2e41"/><path d="M705.714,267.368l7.065,13.121,2.019,22.2-4.037,25.231,14.129,23.213,14.129-63.583L723.881,205.8h-6.056Z" fill="#2f2e41"/><path d="M849.509,652.327s-14.129,4.037-19.176,5.046,3.028,20.185,3.028,20.185,5.046,26.24,6.055,31.287,8.074,22.2,17.157,24.222,3.028-35.324,3.028-35.324,4.037-12.111,4.037-16.148-6.055-2.018-6.055-2.018C841.435,677.558,849.509,652.327,849.509,652.327Z" transform="translate(-229.58 -145.767)" fill="#2f2e41"/><path d="M882.814,730.039c1.009,6.055-1.009,6.055,15.139,8.074s12.111-11.1,12.111-11.1a84.809,84.809,0,0,0-4.037-18.166c-3.028-8.074-19.176,2.018-19.176,2.018S881.8,723.983,882.814,730.039Z" transform="translate(-229.58 -145.767)" fill="#2f2e41"/><path d="M906.053,303.833l.526,8.976s6.512-14.727,7.522-29.865-16.149-18.166-26.241-19.175-27.25,6.055-27.25,14.129,18.166,6.055,25.231,4.037,10.092,15.139,10.092,15.139l4.037,1.009Z" transform="translate(-229.58 -145.767)" fill="#2f2e41"/><path d="M643.24,192.767l5.957-7.147,17.157,14.129L649.2,211.86Z" fill="#d0cde1"/><path d="M685.53,190.666l-7.065-9.083-12.111,18.166,15.139,11.1Z" fill="#d0cde1"/><path d="M851.527,411.117l4.037,38.351-8.074,23.213-5.046,22.2s0,21.194,20.185,22.2,37.342-63.582,37.342-63.582,3.028,14.129,5.046,22.2,36.333,40.37,36.333,40.37,8.074-1.009,15.139-17.157-14.129-31.287-14.129-31.287L936.3,446.441l2.018-26.24,14.13-68.629-41.884-21.7L915.11,387.9l-15.139,45.416L877.263,332.9l-7.569,5.551-32.3,13.121Z" transform="translate(-229.58 -145.767)" fill="#2f2e41"/><path d="M452.664,563.767c-2-.016-4.014-.029-6-.091l.062-2c1.962.061,3.968.088,5.936.09s3.99-.032,5.987-.1l.064,2C456.7,563.734,454.661,563.767,452.664,563.767Zm-18.019-.845c-3.981-.377-8-.888-11.951-1.518l.315-1.975c3.906.623,7.884,1.129,11.824,1.5Zm36.092-.021-.19-1.99c3.938-.377,7.916-.888,11.822-1.517l.318,1.975c-3.948.635-7.969,1.151-11.949,1.532Zm-59.873-3.778c-3.9-.884-7.821-1.907-11.658-3.041l.567-1.918c3.8,1.122,7.676,2.134,11.533,3.008Zm83.648-.05-.444-1.949c3.866-.882,7.745-1.9,11.53-3.022l.569,1.918c-3.825,1.136-7.747,2.163-11.655,3.054ZM387.768,552.3c-3.762-1.382-7.525-2.9-11.186-4.523l.81-1.828c3.622,1.6,7.345,3.107,11.066,4.475Zm129.833-.078-.691-1.877c3.7-1.362,7.409-2.867,11.028-4.473l.812,1.828c-3.658,1.623-7.409,3.144-11.148,4.521Zm-151.887-9.68c-3.54-1.848-7.075-3.84-10.506-5.92l1.037-1.711c3.395,2.06,6.892,4.029,10.395,5.857Zm173.873-.073-.926-1.772c3.494-1.827,6.983-3.8,10.369-5.854l1.039,1.709c-3.424,2.081-6.95,4.071-10.483,5.918ZM345.105,530.039c-3.279-2.288-6.528-4.715-9.659-7.211l1.247-1.564c3.1,2.471,6.313,4.871,9.557,7.135Zm215.05-.071-1.146-1.639c3.243-2.267,6.454-4.667,9.544-7.135l1.248,1.563c-3.123,2.494-6.369,4.919-9.646,7.21ZM326.268,515.014c-2.964-2.69-5.878-5.51-8.66-8.378l1.436-1.393c2.752,2.838,5.636,5.627,8.569,8.29Zm252.7-.069-1.346-1.48c2.926-2.657,5.807-5.448,8.563-8.293l1.436,1.391c-2.785,2.876-5.7,5.7-8.653,8.383ZM309.5,497.726c-2.6-3.043-5.125-6.208-7.521-9.407l1.6-1.2c2.371,3.166,4.874,6.3,7.442,9.308Zm286.228-.083-1.521-1.3c2.567-3.013,5.071-6.148,7.441-9.318l1.6,1.2c-2.4,3.2-4.927,6.373-7.522,9.418ZM295.075,478.452c-2.188-3.351-4.293-6.811-6.258-10.284l1.741-.984c1.943,3.437,4.027,6.86,6.192,10.175Zm315.083-.108-1.676-1.092c2.166-3.321,4.249-6.751,6.193-10.2l1.742.982c-1.966,3.482-4.072,6.949-6.261,10.3ZM283.232,457.506c-1.74-3.6-3.384-7.3-4.886-11l1.853-.752c1.486,3.656,3.113,7.316,4.834,10.877ZM622,457.349l-1.8-.869c1.721-3.566,3.348-7.236,4.836-10.91l1.854.75c-1.5,3.714-3.148,7.425-4.888,11.029ZM274.171,435.208c-1.265-3.8-2.421-7.685-3.436-11.55l1.935-.508c1,3.823,2.147,7.668,3.4,11.425ZM631.06,435l-1.9-.629c1.244-3.753,2.384-7.6,3.385-11.43l1.936.506c-1.013,3.873-2.165,7.76-3.423,11.553ZM268.052,411.914c-.764-3.924-1.411-7.925-1.922-11.893l1.983-.256c.506,3.926,1.146,7.884,1.9,11.766Zm369.1-.22-1.963-.379c.75-3.881,1.386-7.841,1.887-11.77l1.984.254c-.507,3.97-1.15,7.972-1.909,11.894ZM264.973,388.031c-.256-3.986-.389-8.038-.393-12.043l2,0c0,3.963.135,7.972.389,11.916Zm375.228-.224-2-.127c.249-3.94.375-7.949.375-11.913v-.438h2v.432c0,4.013-.128,8.064-.379,12.047ZM266.942,364.072l-2-.123c.248-3.994.627-8.029,1.128-11.994l1.984.25C267.562,356.128,267.187,360.121,266.942,364.072Zm371.236-.656c-.26-3.953-.649-7.944-1.158-11.862L639,351.3c.515,3.96.909,7.993,1.172,11.989ZM269.931,340.435l-1.964-.378c.754-3.925,1.648-7.879,2.655-11.751l1.936.5C271.561,332.64,270.678,336.551,269.931,340.435ZM635.1,339.79c-.762-3.886-1.66-7.794-2.668-11.617l1.934-.51c1.02,3.864,1.927,7.814,2.7,11.742ZM275.93,317.376l-1.9-.627c1.255-3.8,2.653-7.612,4.154-11.331l1.854.749C278.554,309.846,277.171,313.617,275.93,317.376Zm353.1-.624c-1.256-3.754-2.649-7.514-4.143-11.177l1.852-.755c1.51,3.7,2.919,7.5,4.188,11.3Zm-344.162-21.5-1.8-.867c1.735-3.606,3.611-7.205,5.575-10.7l1.743.981C288.435,288.122,286.579,291.682,284.863,295.25Zm335.172-.545c-1.723-3.551-3.585-7.1-5.538-10.542l1.74-.986c1.974,3.48,3.856,7.066,5.6,10.656ZM296.56,274.465l-1.677-1.091c2.181-3.353,4.5-6.68,6.895-9.89l1.6,1.2C301.013,267.856,298.718,271.148,296.56,274.465Zm311.732-.471c-2.164-3.305-4.466-6.587-6.843-9.754l1.6-1.2c2.4,3.2,4.729,6.518,6.917,9.858Zm-297.48-18.64-1.523-1.295c2.59-3.047,5.313-6.051,8.094-8.928l1.438,1.39C316.07,249.367,313.376,252.339,310.812,255.354ZM594,254.942c-2.571-3.006-5.274-5.97-8.032-8.808l1.434-1.394c2.788,2.868,5.52,5.863,8.118,8.9ZM327.374,238.217l-1.347-1.479c2.959-2.7,6.042-5.328,9.16-7.823l1.25,1.562c-3.085,2.468-6.134,5.072-9.063,7.739Zm250.011-.363c-2.933-2.655-5.99-5.251-9.09-7.717l1.246-1.565c3.132,2.493,6.223,5.117,9.186,7.8ZM345.973,223.33l-1.147-1.638c3.272-2.293,6.663-4.511,10.078-6.591l1.041,1.708C352.566,218.868,349.211,221.062,345.973,223.33Zm212.758-.318c-3.256-2.266-6.621-4.453-10-6.5l1.035-1.711c3.418,2.068,6.82,4.278,10.11,6.568Zm-192.424-12.07-.929-1.771c3.536-1.854,7.18-3.619,10.831-5.245l.813,1.827C373.41,207.361,369.8,209.107,366.307,210.942Zm172.02-.274c-3.512-1.828-7.131-3.566-10.758-5.166l.808-1.83c3.665,1.617,7.324,3.374,10.874,5.221Zm-150.281-9.4-.694-1.876c3.75-1.387,7.6-2.67,11.429-3.813l.571,1.917c-3.793,1.131-7.6,2.4-11.306,3.773ZM516.5,201.04c-3.717-1.36-7.526-2.616-11.32-3.732l.564-1.919c3.835,1.128,7.685,2.4,11.443,3.773Zm-105.62-6.58-.446-1.949c3.891-.892,7.869-1.668,11.824-2.311l.32,1.975C418.663,192.81,414.727,193.578,410.878,194.46Zm82.763-.145c-3.856-.869-7.795-1.624-11.706-2.244l.313-1.976c3.953.627,7.934,1.39,11.832,2.269Zm-59.245-3.67-.193-1.99c3.971-.385,8.015-.648,12.021-.782l.066,2c-3.964.132-7.965.392-11.894.773Zm35.713-.062c-3.935-.368-7.937-.614-11.9-.731l.06-2c4,.119,8.046.368,12.022.739Z" transform="translate(-229.58 -145.767)" fill="#d0cde1"/><circle cx="47" cy="47" r="47" transform="translate(351 128)" fill="#ecebff" stroke="#6c63ff" stroke-width="2"/><circle cx="47" cy="47" r="47" transform="translate(294 324)" fill="#ecebff" stroke="#6c63ff" stroke-width="2"/><path d="M47,0A47,47,0,1,1,0,47,47,47,0,0,1,47,0Z" transform="translate(68 332)" fill="#e5fcf9" stroke="#00bfa6" stroke-width="2"/><path d="M328.4,550.307H325a2.554,2.554,0,0,1-2.554-2.554V532.429A2.554,2.554,0,0,1,325,529.875H328.4a2.554,2.554,0,0,1,2.554,2.554v15.324A2.554,2.554,0,0,1,328.4,550.307Z" transform="translate(-4.58 -148.767)" fill="#6c63ff"/><path d="M352.242,550.307h-3.405a2.554,2.554,0,0,1-2.554-2.554v-25.54a2.554,2.554,0,0,1,2.554-2.554h3.405a2.554,2.554,0,0,1,2.554,2.554v25.54A2.554,2.554,0,0,1,352.242,550.307Z" transform="translate(-3.964 -149.676)" fill="#6c63ff"/><path d="M364.16,550.307h-3.405a2.554,2.554,0,0,1-2.554-2.554V510.3a2.554,2.554,0,0,1,2.554-2.554h3.405a2.554,2.554,0,0,1,2.554,2.554v37.458a2.554,2.554,0,0,1-2.554,2.554Z" transform="translate(-27.822 -148.767)" fill="#6c63ff"/><path d="M340.323,550.307h-3.4a2.554,2.554,0,0,1-2.554-2.554V501.781a2.554,2.554,0,0,1,2.554-2.554h3.405a2.554,2.554,0,0,1,2.554,2.554v45.972a2.554,2.554,0,0,1-2.554,2.554Z" transform="translate(19.419 -149.676)" fill="#6c63ff"/><path d="M686.952,636.2l11.923,4.671,22.762-46.272-17.6-6.894Z" transform="translate(-969.877 -59.19)" fill="#ffb7b7"/><path d="M872.9,764.591l38.446,15.062.181-.513c3.07-8.714-1.14-18.4-9.4-21.642h0l-23.481-9.2Z" transform="translate(-1163.158 -176.591)" fill="#2f2e41"/><path d="M603.77,647.07h12.719l6.051-51.734H603.767Z" transform="translate(-769.354 -57.009)" fill="#ffb7b7"/><path d="M771.321,776.548l41.014,0V776c0-9.295-7.146-16.831-15.962-16.833H771.32Z" transform="translate(-939.113 -173.486)" fill="#2f2e41"/><path d="M849.942,485.45l4.15-8.752,35.275,18.6-1.038,7.658,6.744,9.3s11.413,6.564,9.338,28.445l-2.075,20.786-2.594,26.8L917.9,654.476,927.237,742l6.744,70.565L901.3,810.922,871.211,696.049,818.3,819.674l-36.313-9.846,49.8-122.531,6.225-51.419s-4.15-27.351,15.563-45.949l-3.113-9.846V567.949l-10.375-57.884Z" transform="translate(-1073.762 -254.186)" fill="#2f2e41"/><path d="M0,0,88.325,1.2l.017,1.224L.017,1.224Z" transform="translate(-203.138 442.037) rotate(-105.751)" opacity="0.2"/><rect width="50.838" height="5.47" transform="translate(-222.783 334.101)" fill="#3f3d56"/><ellipse cx="2.075" cy="5.47" rx="2.075" ry="5.47" transform="translate(-174.02 331.913)" fill="#3f3d56"/><path d="M27.891.52c15.465.35,28.286,13.535,28.636,29.449S44.624,58.5,29.159,58.15.873,44.615.523,28.7,12.426.17,27.891.52Z" transform="translate(-183.909 230.947) rotate(-151.337)" fill="#ffb7b7"/><ellipse cx="24.466" cy="25.798" rx="24.466" ry="25.798" transform="translate(-261.656 129.519)" fill="#2f2e41"/><path d="M849.214,422.285a26.754,26.754,0,0,0,6.627,26.094,23.543,23.543,0,0,0,25.07,5.557,25.561,25.561,0,0,0,16.03-21.072c-3.635,12.868-16.022,20.646-28.483,17.884S847.627,435.607,849.214,422.285Z" transform="translate(-1117.452 -269.731)" fill="#2f2e41"/><path d="M857.663,452.314c1.477,13.71-5.96,26.759-18.134,31.819s-26.054.872-33.846-10.214a31.828,31.828,0,0,1,.575-37.118c8.131-10.811,22.133-14.52,34.145-9.043,4.831-4.109,10.822-2.835,15.692,1.5,5.507,4.9,7.141,8.271,11.412,16.334C863.306,446.214,861.863,451.693,857.663,452.314Z" transform="translate(-1029.246 -268.884)" fill="#2f2e41"/><path d="M846.785,524.416c.309,8.642.923,25.653.923,26.521,0,.915,12.23,27.617,17.514,39.109v.006c.376.81.713,1.544,1.011,2.191a4.891,4.891,0,0,0,4.515,2.925l23.09-.437a5.058,5.058,0,0,0,4.836-5.058l2.575-107.117a2.728,2.728,0,0,0-.712-1.916,2.449,2.449,0,0,0-1.8-.8H868.963a6.674,6.674,0,0,0-6.024,3.986L848.647,515a20.853,20.853,0,0,0-1.862,9.411Z" transform="translate(-1120.024 -253.288)" fill="#00bfa6"/><path d="M822.311,581.241a67.155,67.155,0,0,0,15.777-14.06,79.306,79.306,0,0,0,18.235-44.856c1.174-14.236-1.5-24.817-7.962-31.451-8.208-8.433-19.38-7.208-19.851-7.151l-.5.06-7.569,6.753,2.142,2.669,6.772-6.043c2.073-.109,10.536-.133,16.719,6.244,5.691,5.869,8.027,15.5,6.946,28.617A75.746,75.746,0,0,1,835.7,564.756a65.225,65.225,0,0,1-14.985,13.423Z" transform="translate(-1043.26 -252.206)" fill="#00bfa6"/><path d="M0,0,41.278.442l.012,1.163L.012,1.163Z" transform="matrix(-0.98, -0.201, 0.201, -0.98, -223.787, 298.221)" fill="#3f3d56"/><path d="M0,0,1.106,0l.143,67.743-1.106,0Z" transform="translate(-238.84 294.276) rotate(-177.663)" fill="#3f3d56"/><path d="M876.335,515.6c.31,8.642.923,25.653.923,26.521,0,.915,12.23,27.617,17.514,39.109l-9.848-60.3a13.126,13.126,0,0,0-8.185-10.251,20.6,20.6,0,0,0-.4,4.918Z" transform="translate(-1149.574 -244.476)" fill="#3f3d56"/><path d="M829.465,622.458a10.691,10.691,0,0,1-1.821-8.465,10.208,10.208,0,0,1,4.986-6.907l-2-23.348,13.159-4.743,2.387,33.013a10.61,10.61,0,0,1-3.953,13.05,9.453,9.453,0,0,1-12.756-2.6Z" transform="translate(-1042.196 -224.96)" fill="#ffb7b7"/><path d="M831.039,625.323l23.317-.892-.986-118.57a15.969,15.969,0,0,0-10.283-15.234,13.114,13.114,0,0,0-8.672-.008A16.034,16.034,0,0,0,824.147,507Z" transform="translate(-1045.49 -250.418)" fill="#cbcbcb"/><path d="M629.587,773.571H857.14c.33,0,.6-.576.6-1.286s-.267-1.286-.6-1.286H629.587c-.33,0-.6.576-.6,1.286S629.257,773.571,629.587,773.571Z" transform="translate(-960.727 -170.106)" fill="#cbcbcb"/><circle cx="47" cy="47" r="47" transform="translate(-12 130)" fill="#e5fcf9" stroke="#00bfa6" stroke-width="2"/><path d="M190.89,469.509l3.531-1.009,53.244,2.9-5.86.756Z" transform="translate(-184.598 -316.547)" fill="#7b728f"/><path d="M190.89,469.509l3.531-1.009,53.244,2.9-5.86.756Z" transform="translate(-184.598 -316.547)" fill="#4e7e78" opacity="0.1"/><path d="M329.28,527.21l-7.025-.654-2.465-.227v-39.07l.65-9.07.144-2.019h7.248Z" transform="translate(-264.764 -321.317)" fill="#4e7e78"/><path d="M327.359,527.893l-5.6-.62-1.966-.215V490.014l.518-8.6.113-1.917H326.2Z" transform="translate(-264.764 -323.388)" fill="#4e7e78" opacity="0.1"/><path d="M401.42,507.265s3.678-7.671,5.221-7.909a24.954,24.954,0,0,1,4.374,0l-.251,2.223s-3.778.284-4.971,6.284Z" transform="translate(-377.248 -354.303)" fill="#7b728f"/><path d="M402.355,506.99s3.144-7.4,4.611-7.634a22.562,22.562,0,0,1,4.159,0l-.238,2.223s-3.592.284-4.726,6.284Z" transform="translate(-377.829 -354.303)" fill="#4e7e78" opacity="0.1"/><path d="M435.1,497.41s14.185,4.357,12.331,9.463l-7.7-.264s-3.707-7.614-6.628-8.012S435.1,497.41,435.1,497.41Z" transform="translate(-401.574 -352.463)" fill="#00bfa6"/><path d="M324.478,477.57l-2.223,49.857-2.465-.227V488.13l.65-9.07Z" transform="translate(-264.764 -322.188)" fill="#4e7e78" opacity="0.1"/><path d="M189.742,496.825l-1.512,26.968,51.418,4.287L241.9,477.57Z" transform="translate(-182.942 -322.188)" fill="#00bfa6"/><path d="M189.23,496.989l1.006-23.819,52.666,2.42-2.507,25.18Z" transform="translate(-183.564 -319.451)" opacity="0.1"/><path d="M188.23,494.989l1.006-23.819,52.666,2.42-2.507,25.18Z" transform="translate(-182.942 -318.208)" fill="#00bfa6"/><ellipse cx="3.774" cy="0.566" rx="3.774" ry="0.566" transform="matrix(0.621, -0.784, 0.784, 0.621, 76.275, 375.403)" fill="#e0e0e0"/><ellipse cx="3.774" cy="0.385" rx="3.774" ry="0.385" transform="matrix(0.621, -0.784, 0.784, 0.621, 117.681, 408.233)" fill="#e0e0e0"/><rect width="2.265" height="7.549" transform="matrix(0.622, 0.783, -0.783, 0.622, 96.476, 389.494)" fill="#f55f44"/><rect width="2.548" height="7.549" transform="translate(94.955 397.667) rotate(-154.769)" opacity="0.05"/><rect width="2.265" height="7.549" transform="translate(94.955 397.667) rotate(-154.769)" fill="#f55f44"/><rect width="7.926" height="52.654" transform="matrix(0.621, -0.784, 0.784, 0.621, 76.602, 375.903)" fill="url(#a)"/><path d="M263.567,448.8c-.923-.443-47.843-23.738-47.167-23.4a26.344,26.344,0,0,0,3.355-6.762l47.167,23.4S265.266,444.941,263.567,448.8Z" transform="matrix(0.978, 0.208, -0.208, 0.978, -46.508, -85.335)" fill="#4e7e78"/><rect width="4.341" height="7.549" transform="matrix(0.784, 0.621, -0.621, 0.784, 99.454, 384.136)" opacity="0.05"/><rect width="3.963" height="7.549" transform="matrix(0.784, 0.621, -0.621, 0.784, 99.602, 384.254)" fill="#f55f44"/><rect width="2.642" height="7.549" transform="matrix(0.784, 0.621, -0.621, 0.784, 100.045, 384.605)" opacity="0.05"/><rect width="2.265" height="7.549" transform="matrix(0.784, 0.621, -0.621, 0.784, 100.193, 384.722)" fill="#f55f44"/><circle cx="0.315" cy="0.315" r="0.315" transform="matrix(0.978, 0.208, -0.208, 0.978, 96.989, 406.724)" fill="#dbdbdb"/><g transform="matrix(0.978, 0.208, -0.208, 0.978, 73.93, 393.137)" opacity="0.5"><rect width="0.323" height="1.828" transform="translate(0.753)" fill="#47e6b1"/><rect width="0.323" height="1.828" transform="translate(1.828 0.753) rotate(90)" fill="#47e6b1"/></g><g transform="matrix(0.978, 0.208, -0.208, 0.978, 158.202, 387.739)" opacity="0.5"><rect width="0.323" height="1.828" transform="translate(0.753)" fill="#47e6b1"/><rect width="0.323" height="1.828" transform="translate(1.828 0.753) rotate(90)" fill="#47e6b1"/></g><g transform="matrix(0.978, 0.208, -0.208, 0.978, 85.282, 349.039)" opacity="0.5"><rect width="0.323" height="1.828" transform="translate(0.753)" fill="#47e6b1"/><rect width="0.323" height="1.828" transform="translate(1.828 0.753) rotate(90)" fill="#47e6b1"/></g><g transform="matrix(0.978, 0.208, -0.208, 0.978, 154.034, 360.794)" opacity="0.5"><rect width="0.323" height="1.828" transform="translate(0.753)" fill="#47e6b1"/><rect width="0.323" height="1.828" transform="translate(1.828 0.753) rotate(90)" fill="#47e6b1"/></g><path d="M203.629,410.366a.4.4,0,0,1-.22-.478.19.19,0,0,0,.009-.044h0a.2.2,0,0,0-.356-.131h0a.19.19,0,0,0-.022.039.4.4,0,0,1-.478.22.188.188,0,0,0-.044-.009h0a.2.2,0,0,0-.131.356h0a.191.191,0,0,0,.039.022.4.4,0,0,1,.22.478.191.191,0,0,0-.009.044h0a.2.2,0,0,0,.356.131h0a.19.19,0,0,0,.022-.039.4.4,0,0,1,.478-.22.193.193,0,0,0,.044.009h0a.2.2,0,0,0,.131-.356h0A.191.191,0,0,0,203.629,410.366Z" transform="matrix(0.978, 0.208, -0.208, 0.978, -35.882, -74.867)" fill="#4d8af0" opacity="0.5"/><path d="M375.629,213.366a.4.4,0,0,1-.22-.478.19.19,0,0,0,.009-.044h0a.2.2,0,0,0-.356-.131h0a.189.189,0,0,0-.022.039.4.4,0,0,1-.478.22.19.19,0,0,0-.044-.009h0a.2.2,0,0,0-.131.356h0a.192.192,0,0,0,.039.022.4.4,0,0,1,.22.478.188.188,0,0,0-.009.044h0a.2.2,0,0,0,.356.131h0a.189.189,0,0,0,.022-.039.4.4,0,0,1,.478-.22.191.191,0,0,0,.044.009h0a.2.2,0,0,0,.131-.356h0A.189.189,0,0,0,375.629,213.366Z" transform="matrix(0.978, 0.208, -0.208, 0.978, -222.583, 65.189)" fill="#4d8af0" opacity="0.5"/><path d="M585.629,724.366a.4.4,0,0,1-.22-.478.2.2,0,0,0,.009-.044h0a.2.2,0,0,0-.356-.131h0a.188.188,0,0,0-.022.039.4.4,0,0,1-.478.22.192.192,0,0,0-.044-.009h0a.2.2,0,0,0-.131.356h0a.187.187,0,0,0,.039.022.4.4,0,0,1,.22.478.188.188,0,0,0-.009.044h0a.2.2,0,0,0,.356.131h0a.191.191,0,0,0,.022-.039.4.4,0,0,1,.478-.22.188.188,0,0,0,.044.009h0a.2.2,0,0,0,.131-.356h0A.191.191,0,0,0,585.629,724.366Z" transform="matrix(0.978, 0.208, -0.208, 0.978, -311.085, -419.853)" fill="#4d8af0" opacity="0.5"/><circle cx="0.645" cy="0.645" r="0.645" transform="matrix(0.978, 0.208, -0.208, 0.978, 151.815, 404.854)" fill="#f55f44" opacity="0.5"/><circle cx="0.645" cy="0.645" r="0.645" transform="matrix(0.978, 0.208, -0.208, 0.978, 137.08, 405.9)" fill="#4d8af0" opacity="0.5"/><circle cx="0.645" cy="0.645" r="0.645" transform="matrix(0.978, 0.208, -0.208, 0.978, 80.635, 400.389)" fill="#47e6b1" opacity="0.5"/><circle cx="0.645" cy="0.645" r="0.645" transform="matrix(0.978, 0.208, -0.208, 0.978, 125, 350.994)" fill="#f55f44" opacity="0.5"/><path d="M385.778,448.193l-2.581,3.872s.86,3.979,19.9,3.872,20.542-3.872,20.542-3.872l-3.549-5.162-10.863-7.421Z" transform="matrix(0.978, 0.208, -0.208, 0.978, -188.25, -134.486)" fill="#00bfa6"/><path d="M385.778,448.193l-2.581,3.872s.86,3.979,19.9,3.872,20.542-3.872,20.542-3.872l-3.549-5.162-10.863-7.421Z" transform="matrix(0.978, 0.208, -0.208, 0.978, -188.25, -134.486)" opacity="0.15"/><path d="M91.572,81.208,57.694,96.158l-41.3-14.95L54.252,64l18.584,8.569.666.308Z" transform="matrix(0.978, 0.208, -0.208, 0.978, 79.917, 283.019)" fill="#00bfa6"/><path d="M91.572,81.208,57.694,96.158l-41.3-14.95L54.252,64l18.584,8.569.666.308Z" transform="matrix(0.978, 0.208, -0.208, 0.978, 79.917, 283.019)" opacity="0.15"/><path d="M542.551,155.893l-.645.039-.722-12.262.666.308Z" transform="matrix(0.978, 0.208, -0.208, 0.978, -363.415, 116.096)" fill="#f5f5f5"/><path d="M386.208,368.3,383.2,386.587s21.618-6.991,40.439,0l-2.8-19.359S395.565,364.109,386.208,368.3Z" transform="matrix(0.978, 0.208, -0.208, 0.978, -201.864, -70.439)" fill="#00bfa6"/><ellipse cx="3.119" cy="2.151" rx="3.119" ry="2.151" transform="matrix(0.978, 0.208, -0.208, 0.978, 131.884, 380.166)" fill="#f5f5f5"/><rect width="6.333" height="7.372" transform="translate(27.435 176.811)" fill="#c3bbc8"/><path d="M203.032,45.785,214.6,35.791,222.7,20.405l14.526,2.762,17.54-13.493" transform="translate(105.883 331.731)" fill="none" stroke="#6c63ff" stroke-miterlimit="10" stroke-width="2"/><g transform="translate(362.661 333) rotate(48)" fill="#6c63ff"><path d="M 8.07712459564209 8.477657318115234 L 0.805178701877594 8.477657318115234 L 4.44115161895752 1.127640128135681 L 8.07712459564209 8.477657318115234 Z" stroke="none"/><path d="M 4.44115161895752 2.255282878875732 L 1.610355854034424 7.977657318115234 L 7.271947383880615 7.977657318115234 L 4.44115161895752 2.255282878875732 M 4.44115161895752 -2.86102294921875e-06 L 8.882301330566406 8.977657318115234 L 1.9073486328125e-06 8.977657318115234 L 4.44115161895752 -2.86102294921875e-06 Z" stroke="none" fill="#6c63ff"/></g><path d="M284.042,317.969a1.866,1.866,0,0,1-1.319-3.185L287,310.507l-4.277-4.278a1.866,1.866,0,1,1,2.638-2.638l5.6,5.6a1.865,1.865,0,0,1,0,2.638l-5.6,5.6A1.86,1.86,0,0,1,284.042,317.969Z" transform="translate(122.088 -145.767)" fill="#6c63ff"/><path d="M254.193,323.565a1.866,1.866,0,0,1-1.866-1.866v-1.866a11.249,11.249,0,0,1,11.188-11.194h24.258a1.866,1.866,0,0,1,0,3.731H263.521a7.507,7.507,0,0,0-7.462,7.468v1.86a1.866,1.866,0,0,1-1.866,1.866Z" transform="translate(122.088 -145.767)" fill="#6c63ff"/><path d="M269.118,338.49a1.86,1.86,0,0,1-1.319-.546l-5.6-5.6a1.865,1.865,0,0,1,0-2.638l5.6-5.6a1.866,1.866,0,0,1,2.638,2.638l-4.278,4.278,4.278,4.278a1.866,1.866,0,0,1-1.319,3.185Z" transform="translate(122.088 -145.767)" fill="#6c63ff"/><path d="M265.386,332.893a1.866,1.866,0,0,1,0-3.731h24.253a7.507,7.507,0,0,0,7.462-7.468v-1.86a1.866,1.866,0,1,1,3.731,0V321.7a11.249,11.249,0,0,1-11.188,11.194Z" transform="translate(122.088 -145.767)" fill="#6c63ff"/><ellipse cx="40.21" cy="6.8" rx="40.21" ry="6.8" transform="translate(-399.975 583.252)" fill="#00bfa6"/><path d="M1080.76,807.4a11.73,11.73,0,0,0,3.84-5.79c.49-2.29-.49-5.05-2.68-5.89-2.46-.94-5.09.77-7.08,2.49s-4.28,3.68-6.89,3.32a10.47,10.47,0,0,0,3.24-9.81,4.12,4.12,0,0,0-.9-2c-1.37-1.46-3.84-.84-5.48.31-5.2,3.66-6.65,10.72-6.68,17.08-.52-2.29-.08-4.68-.09-7s-.66-5-2.64-6.23a8,8,0,0,0-4-.94c-2.34-.09-4.94.14-6.54,1.85-2,2.13-1.47,5.69.26,8s4.35,3.81,6.76,5.42a15,15,0,0,1,4.84,4.61,4.836,4.836,0,0,1,.36.83h14.65a40.769,40.769,0,0,0,9.03-6.25Z" transform="translate(-1423.915 -231.758)" fill="#00bfa6"/><path d="M109.33,723.55s5.49,7.18-2.54,18-14.65,20-12,26.76c0,0,12.11-20.14,22-20.43S120.17,735.66,109.33,723.55Z" transform="translate(675.595 -187.865)" fill="#6c63ff"/><path d="M109.33,723.55a9,9,0,0,1,1.12,2.25c9.62,11.3,14.74,21.85,5.5,22.11-8.62.25-19,15.65-21.43,19.54a9.3,9.3,0,0,0,.3.89s12.11-20.14,22-20.43S120.17,735.66,109.33,723.55Z" transform="translate(675.595 -187.865)" opacity="0.1"/><path d="M119.54,732.7c0,2.53-.29,4.58-.64,4.58s-.63-2-.63-4.58.35-1.34.71-1.34S119.54,730.17,119.54,732.7Z" transform="translate(675.595 -187.865)" fill="#ffd037"/><path d="M123,735.72c-2.22,1.21-4.15,1.94-4.32,1.63s1.5-1.53,3.72-2.74,1.34-.33,1.51,0S125.26,734.51,123,735.72Z" transform="translate(675.595 -187.865)" fill="#ffd037"/><path d="M80.31,723.55s-5.49,7.18,2.53,18,14.65,20,12,26.76c0,0-12.12-20.14-22-20.43S69.46,735.66,80.31,723.55Z" transform="translate(675.595 -187.865)" fill="#6c63ff"/><path d="M80.31,723.55a8.629,8.629,0,0,0-1.12,2.25c-9.62,11.3-14.75,21.85-5.5,22.11,8.61.25,19,15.65,21.42,19.54a9.241,9.241,0,0,1-.29.89s-12.12-20.14-22-20.43S69.46,735.66,80.31,723.55Z" transform="translate(675.595 -187.865)" opacity="0.1"/><path d="M70.1,732.7c0,2.53.28,4.58.63,4.58s.63-2,.63-4.58-.35-1.34-.7-1.34S70.1,730.17,70.1,732.7Z" transform="translate(675.595 -187.865)" fill="#ffd037"/><path d="M66.59,735.72c2.22,1.21,4.16,1.94,4.33,1.63s-1.5-1.53-3.72-2.74-1.35-.33-1.51,0S64.37,734.51,66.59,735.72Z" transform="translate(675.595 -187.865)" fill="#ffd037"/><path d="M71.85,767.4s15.36-.47,20-3.77,23.63-7.23,24.78-2,23.08,26.3,5.74,26.44-40.29-2.71-44.91-5.52S71.85,767.4,71.85,767.4Z" transform="translate(675.595 -187.865)" fill="#a8a8a8"/><path d="M122.66,786.28c-17.34.14-40.29-2.71-44.91-5.52-3.52-2.14-4.92-9.83-5.39-13.38h-.51s1,12.39,5.59,15.2,27.57,5.66,44.91,5.52c5,0,6.73-1.83,6.64-4.46C128.29,785.25,126.39,786.25,122.66,786.28Z" transform="translate(675.595 -187.865)" opacity="0.2"/><circle cx="47" cy="47" r="47" transform="translate(176 1)" fill="#fbfce5" stroke="#acbf00" stroke-width="2"/><path d="M313.287,272.713l25.76,23.617,59.263-80.563h9.91L339.047,317.805l-36.5-40.791Z" transform="translate(-118.433 -241.66)" fill="#d1dd62"/></g></svg>